<svg id="Layer_1" data-name="Layer 1" xmlns="http://www.w3.org/2000/svg" viewBox="0 0 571.25 149.47"><defs><style>.cls-1{fill:#1f1f1f;stroke:#1f1f1f;}.cls-1,.cls-2{stroke-miterlimit:10;stroke-width:2px;}.cls-2{fill:#ff0f0f;stroke:#ff0f0f;}</style></defs><path class="cls-1" d="M252.22,374.93H241.71l-34,90.56,3.18,1.43L222.64,445l6.57-11.71,31-7.51,10.61,25.69h13.91ZM234.1,422l12.6-29.82,12,29.82Z" transform="translate(-12.31 -346.21)"/><path class="cls-1" d="M549.51,374.93H539l-34,90.56,3.18,1.43L519.93,445l6.58-11.71,31-7.51,10.6,25.69h13.92Zm-18.12,47L544,392.15,556,422Z" transform="translate(-12.31 -346.21)"/><polygon class="cls-1" points="317.49 106.88 296.59 102.79 296.59 28.72 284.43 28.72 284.43 114.02 337.22 114.02 337.53 110.56 317.49 106.88"/><polygon class="cls-1" points="470.42 28.72 470.42 63.25 434.92 63.25 434.92 28.72 422.76 28.72 422.76 120.44 426.23 120.75 431.69 89.18 434.66 74.53 470.42 67.3 470.42 105.25 482.58 105.25 482.58 28.72 470.42 28.72"/><path class="cls-1" d="M422.14,407.83a35.53,35.53,0,0,0-7.84-12A36.33,36.33,0,0,0,402.42,388a41.22,41.22,0,0,0-30.07,0,36.48,36.48,0,0,0-11.89,7.88,35.45,35.45,0,0,0-7.83,12,41.83,41.83,0,0,0,0,30,35.51,35.51,0,0,0,7.83,12,36.33,36.33,0,0,0,11.88,7.88,41.24,41.24,0,0,0,30.08,0,36.38,36.38,0,0,0,11.88-7.88,35.58,35.58,0,0,0,7.84-12,41.83,41.83,0,0,0,0-30Zm-9.23,15A29.5,29.5,0,0,1,411,433.37a26.44,26.44,0,0,1-5.25,8.54,24.66,24.66,0,0,1-8.06,5.73,26.62,26.62,0,0,1-20.68,0,24.51,24.51,0,0,1-8.05-5.73,26.38,26.38,0,0,1-5.25-8.54,30.4,30.4,0,0,1,0-21.05,26.49,26.49,0,0,1,5.25-8.54,24.51,24.51,0,0,1,8.05-5.73,26.62,26.62,0,0,1,20.68,0,24.45,24.45,0,0,1,8.06,5.73,26.55,26.55,0,0,1,5.25,8.54A29.48,29.48,0,0,1,412.91,422.84Z" transform="translate(-12.31 -346.21)"/><path class="cls-2" d="M120.11,470.18a7.75,7.75,0,0,0,7.6,7.63,7.67,7.67,0,1,0,.21-15.33A7.73,7.73,0,0,0,120.11,470.18Z" transform="translate(-12.31 -346.21)"/><path class="cls-2" d="M89.84,470.07a8.19,8.19,0,0,0,7.61,7.76,7.79,7.79,0,0,0,7.89-7.7,7.7,7.7,0,0,0-7.89-7.65A7.62,7.62,0,0,0,89.84,470.07Z" transform="translate(-12.31 -346.21)"/><path class="cls-2" d="M163.31,370.18a73.71,73.71,0,0,0-104.2-2.72l3.07,3.24a69.24,69.24,0,1,1-2.55,97.88c2.71,2.93,5.43,5.86,8.37,8.57a72.25,72.25,0,0,0,15.62,11.28,58.94,58.94,0,0,0,24.3,6.18,67,67,0,0,0,17-1.5,73.75,73.75,0,0,0,38.44-122.93Z" transform="translate(-12.31 -346.21)"/><path class="cls-2" d="M39.15,428.6,57.3,390.82h.22l13.66,39.31,9.66,29.05,11.37-.08h0q25.4-.09,50.78,0c2.1,0,3.12-.51,3.75-2.69,4.32-14.92,8.8-29.79,13.22-44.69.94-3.17,1.85-6.34,2.76-9.52.25-.84.49-1.68.73-2.52l.36-1.26a4.15,4.15,0,0,0,.34-1.26,25.8,25.8,0,0,0-2.63.17l-2.65.19-5.31.36-10.57.72-10.54.73-10.51.72-10.49.71L101,401.5c-3.49.24-7,.57-10.48.8-1.31.09-4.43.36-5.74.45l1.94.06,24.5.23v18.83l-19.52,1.71c2.52.24,2.93.3,4.41.41.79,0,1.5.1,2.25.15l2.3.16c3,.2,6,.4,9,.78l.77.11c.27,0,.78,0,.8.4.07.94,0,1.89,0,2.83l.06,3.05c0,2,.07,4,.11,5.95,0,.61,0,1.23,0,1.84.42-1.86.77-3.74,1.09-5.62.21-1.25.4-2.5.59-3.75s.41-2.58.5-3.88c0-.24,0-.59.31-.68a1.1,1.1,0,0,1,.26,0l3.25,0H127.6l.63,0h.2a.32.32,0,0,1,.17,0c.07,0,.06.12.06.19s0,.34,0,.51l0,.67,0,.67,0,.67,0,.66,0,.66-.05.65,0,.65,0,.65,0,.64,0,.64,0,.64,0,.63,0,.64,0,.63,0,.63,0,.64,0,.63,0,.63c0,.21,0,.42,0,.63s0,.42,0,.63,0,.42,0,.63V440a2.85,2.85,0,0,0,.09-.32l.06-.22A3.5,3.5,0,0,0,128,439c0-.2.1-.4.14-.61s.09-.42.13-.63.09-.42.13-.63.09-.42.14-.63.09-.43.14-.64.09-.42.13-.63.1-.42.14-.63.1-.42.14-.63.1-.42.14-.64l.15-.63.14-.64c0-.21.09-.42.14-.64s.09-.42.14-.64.1-.42.14-.64.1-.43.14-.64l.15-.65c0-.22.09-.43.14-.65s.09-.44.13-.66l.24-1.12c0-.22.09-.44.14-.65a3.57,3.57,0,0,1,.1-.35.25.25,0,0,1,.08-.12l.12,0h.58l.81,0h.35l1.42,0H142l1.76,0c.58,0,1.07,0,1.78,0a.2.2,0,0,1,.11,0c.11.07.08.19.06.29l-.12.45c-.08.3-.16.59-.25.89,0,.15-.09.29-.13.44-.52,1.74-1,3.49-1.53,5.24-.7,2.45-1.41,4.9-2.11,7.35-.64,2.28-1.28,4.55-1.89,6.83-.55,2-1.42,2.81-3.65,2.8q-23.48-.16-47,0a4.82,4.82,0,0,1-.54,0l-30.2-74.57-1.89-4.21L13.23,473,27,450l8.1-12.94,36.1-6.93Zm89.43-6.73a.36.36,0,0,1-.15,0c-1.41,0-2.83,0-4.25,0h-8.89a8.15,8.15,0,0,1-1.21,0,.25.25,0,0,1-.13-.05.18.18,0,0,1,0-.1A6,6,0,0,1,114,421c0-.25.07-.51.1-.76l.21-1.67c.13-1.09.27-2.18.41-3.27l.84-6.53a10.53,10.53,0,0,1,.17-1.36L116,406c0-.46.11-.93.17-1.39l.12-1.16a.34.34,0,0,1,.05-.14c.1-.13.41-.06.56-.06h.7c1.38,0,2.76,0,4.13,0h8.12c.2,0,.53-.08.54.21a9.72,9.72,0,0,1-.12,1.21c-.05.39-.07.79-.1,1.18s-.07.74-.1,1.11l-.09,1.1c0,.36-.06.73-.1,1.09l-.09,1.08-.09,1.09-.1,1.08-.09,1.08c0,.37-.07.73-.1,1.1l-.09,1.1c0,.37-.07.74-.1,1.11l-.09,1.13c0,.38-.07.76-.1,1.14s-.07.78-.1,1.17a14.76,14.76,0,0,1-.17,1.49A.28.28,0,0,1,128.58,421.87Zm16.92-.07a14.56,14.56,0,0,1-2.09.05c-2.06,0-4.12,0-6.18,0l-4.27,0c-.78,0-1.21.25-1.11-.61.3-2.6.84-5.2,1.33-7.76.51-2.72,1-5.44,1.71-8.13a2.72,2.72,0,0,1,2.59-2c1.53,0,3.08,0,4.62,0s3.09,0,4.64,0l2.67-.05,1.35,0a2.4,2.4,0,0,1,1.1.11c.33.17.19.63.12.92-.27,1.18-.71,2.31-1,3.48-1,3.39-2.11,6.83-3,10.28-.31,1.25-.48,2.95-1.79,3.59A2.43,2.43,0,0,1,145.5,421.8Z" transform="translate(-12.31 -346.21)"/><path class="cls-1" d="M252.22,374.93H241.71l-34,90.56,3.18,1.43L222.64,445l6.57-11.71,31-7.51,10.61,25.69h13.91ZM234.1,422l12.6-29.82,12,29.82Z" transform="translate(-12.31 -346.21)"/><path class="cls-1" d="M549.51,374.93H539l-34,90.56,3.18,1.43L519.93,445l6.58-11.71,31-7.51,10.6,25.69h13.92Zm-18.12,47L544,392.15,556,422Z" transform="translate(-12.31 -346.21)"/><polygon class="cls-1" points="317.49 106.88 296.59 102.79 296.59 28.72 284.43 28.72 284.43 114.02 337.22 114.02 337.53 110.56 317.49 106.88"/><polygon class="cls-1" points="470.42 28.72 470.42 63.25 434.92 63.25 434.92 28.72 422.76 28.72 422.76 120.44 426.23 120.75 431.69 89.18 434.66 74.53 470.42 67.3 470.42 105.25 482.58 105.25 482.58 28.72 470.42 28.72"/><path class="cls-1" d="M422.14,407.83a35.53,35.53,0,0,0-7.84-12A36.33,36.33,0,0,0,402.42,388a41.22,41.22,0,0,0-30.07,0,36.48,36.48,0,0,0-11.89,7.88,35.45,35.45,0,0,0-7.83,12,41.83,41.83,0,0,0,0,30,35.51,35.51,0,0,0,7.83,12,36.33,36.33,0,0,0,11.88,7.88,41.24,41.24,0,0,0,30.08,0,36.38,36.38,0,0,0,11.88-7.88,35.58,35.58,0,0,0,7.84-12,41.83,41.83,0,0,0,0-30Zm-9.23,15A29.5,29.5,0,0,1,411,433.37a26.44,26.44,0,0,1-5.25,8.54,24.66,24.66,0,0,1-8.06,5.73,26.62,26.62,0,0,1-20.68,0,24.51,24.51,0,0,1-8.05-5.73,26.38,26.38,0,0,1-5.25-8.54,30.4,30.4,0,0,1,0-21.05,26.49,26.49,0,0,1,5.25-8.54,24.51,24.51,0,0,1,8.05-5.73,26.62,26.62,0,0,1,20.68,0,24.45,24.45,0,0,1,8.06,5.73,26.55,26.55,0,0,1,5.25,8.54A29.48,29.48,0,0,1,412.91,422.84Z" transform="translate(-12.31 -346.21)"/><path class="cls-2" d="M120.11,470.18a7.75,7.75,0,0,0,7.6,7.63,7.67,7.67,0,1,0,.21-15.33A7.73,7.73,0,0,0,120.11,470.18Z" transform="translate(-12.31 -346.21)"/><path class="cls-2" d="M89.84,470.07a8.19,8.19,0,0,0,7.61,7.76,7.79,7.79,0,0,0,7.89-7.7,7.7,7.7,0,0,0-7.89-7.65A7.62,7.62,0,0,0,89.84,470.07Z" transform="translate(-12.31 -346.21)"/><path class="cls-2" d="M163.31,370.18a73.71,73.71,0,0,0-104.2-2.72l3.07,3.24a69.24,69.24,0,1,1-2.55,97.88c2.71,2.93,5.43,5.86,8.37,8.57a72.25,72.25,0,0,0,15.62,11.28,58.94,58.94,0,0,0,24.3,6.18,67,67,0,0,0,17-1.5,73.75,73.75,0,0,0,38.44-122.93Z" transform="translate(-12.31 -346.21)"/><path class="cls-2" d="M39.15,428.6,57.3,390.82h.22l13.66,39.31,9.66,29.05,11.37-.08h0q25.4-.09,50.78,0c2.1,0,3.12-.51,3.75-2.69,4.32-14.92,8.8-29.79,13.22-44.69.94-3.17,1.85-6.34,2.76-9.52.25-.84.49-1.68.73-2.52l.36-1.26a4.15,4.15,0,0,0,.34-1.26,25.8,25.8,0,0,0-2.63.17l-2.65.19-5.31.36-10.57.72-10.54.73-10.51.72-10.49.71L101,401.5c-3.49.24-7,.57-10.48.8-1.31.09-4.43.36-5.74.45l1.94.06,24.5.23v18.83l-19.52,1.71c2.52.24,2.93.3,4.41.41.79,0,1.5.1,2.25.15l2.3.16c3,.2,6,.4,9,.78l.77.11c.27,0,.78,0,.8.4.07.94,0,1.89,0,2.83l.06,3.05c0,2,.07,4,.11,5.95,0,.61,0,1.23,0,1.84.42-1.86.77-3.74,1.09-5.62.21-1.25.4-2.5.59-3.75s.41-2.58.5-3.88c0-.24,0-.59.31-.68a1.1,1.1,0,0,1,.26,0l3.25,0H127.6l.63,0h.2a.32.32,0,0,1,.17,0c.07,0,.06.12.06.19s0,.34,0,.51l0,.67,0,.67,0,.67,0,.66,0,.66-.05.65,0,.65,0,.65,0,.64,0,.64,0,.64,0,.63,0,.64,0,.63,0,.63,0,.64,0,.63,0,.63c0,.21,0,.42,0,.63s0,.42,0,.63,0,.42,0,.63V440a2.85,2.85,0,0,0,.09-.32l.06-.22A3.5,3.5,0,0,0,128,439c0-.2.1-.4.14-.61s.09-.42.13-.63.09-.42.13-.63.09-.42.14-.63.09-.43.14-.64.09-.42.13-.63.1-.42.14-.63.1-.42.14-.63.1-.42.14-.64l.15-.63.14-.64c0-.21.09-.42.14-.64s.09-.42.14-.64.1-.42.14-.64.1-.43.14-.64l.15-.65c0-.22.09-.43.14-.65s.09-.44.13-.66l.24-1.12c0-.22.09-.44.14-.65a3.57,3.57,0,0,1,.1-.35.25.25,0,0,1,.08-.12l.12,0h.58l.81,0h.35l1.42,0H142l1.76,0c.58,0,1.07,0,1.78,0a.2.2,0,0,1,.11,0c.11.07.08.19.06.29l-.12.45c-.08.3-.16.59-.25.89,0,.15-.09.29-.13.44-.52,1.74-1,3.49-1.53,5.24-.7,2.45-1.41,4.9-2.11,7.35-.64,2.28-1.28,4.55-1.89,6.83-.55,2-1.42,2.81-3.65,2.8q-23.48-.16-47,0a4.82,4.82,0,0,1-.54,0l-30.2-74.57-1.89-4.21L13.23,473,27,450l8.1-12.94,36.1-6.93Zm89.43-6.73a.36.36,0,0,1-.15,0c-1.41,0-2.83,0-4.25,0h-8.89a8.15,8.15,0,0,1-1.21,0,.25.25,0,0,1-.13-.05.18.18,0,0,1,0-.1A6,6,0,0,1,114,421c0-.25.07-.51.1-.76l.21-1.67c.13-1.09.27-2.18.41-3.27l.84-6.53a10.53,10.53,0,0,1,.17-1.36L116,406c0-.46.11-.93.17-1.39l.12-1.16a.34.34,0,0,1,.05-.14c.1-.13.41-.06.56-.06h.7c1.38,0,2.76,0,4.13,0h8.12c.2,0,.53-.08.54.21a9.72,9.72,0,0,1-.12,1.21c-.05.39-.07.79-.1,1.18s-.07.74-.1,1.11l-.09,1.1c0,.36-.06.73-.1,1.09l-.09,1.08-.09,1.09-.1,1.08-.09,1.08c0,.37-.07.73-.1,1.1l-.09,1.1c0,.37-.07.74-.1,1.11l-.09,1.13c0,.38-.07.76-.1,1.14s-.07.78-.1,1.17a14.76,14.76,0,0,1-.17,1.49A.28.28,0,0,1,128.58,421.87Zm16.92-.07a14.56,14.56,0,0,1-2.09.05c-2.06,0-4.12,0-6.18,0l-4.27,0c-.78,0-1.21.25-1.11-.61.3-2.6.84-5.2,1.33-7.76.51-2.72,1-5.44,1.71-8.13a2.72,2.72,0,0,1,2.59-2c1.53,0,3.08,0,4.62,0s3.09,0,4.64,0l2.67-.05,1.35,0a2.4,2.4,0,0,1,1.1.11c.33.17.19.63.12.92-.27,1.18-.71,2.31-1,3.48-1,3.39-2.11,6.83-3,10.28-.31,1.25-.48,2.95-1.79,3.59A2.43,2.43,0,0,1,145.5,421.8Z" transform="translate(-12.31 -346.21)"/></svg>