<svg id="Oscar_logo" data-name="Oscar logo" xmlns="http://www.w3.org/2000/svg" width="137.417" height="44.706" viewBox="0 0 137.417 44.706">
  <path id="Path_985" data-name="Path 985" d="M1611.678,676.864v-.016a2.732,2.732,0,0,1,2.766-2.774,2.9,2.9,0,0,1,2.062.728l-.6.713a2.1,2.1,0,0,0-1.5-.575,1.814,1.814,0,0,0-1.739,1.893v.015a1.791,1.791,0,0,0,1.823,1.916,2.189,2.189,0,0,0,1.295-.406v-1h-1.371v-.82h2.283v2.253a3.42,3.42,0,0,1-2.238.835,2.661,2.661,0,0,1-2.782-2.758" transform="translate(-1567.889 -634.916)" fill="#c5171c"/>
  <path id="Path_986" data-name="Path 986" d="M1647.528,674.44h2.39a2.16,2.16,0,0,1,1.548.536,1.62,1.62,0,0,1,.445,1.157v.016a1.611,1.611,0,0,1-1.272,1.624l1.448,2.031h-1.119l-1.318-1.87h-1.18v1.87h-.942Zm2.322,2.659c.674,0,1.1-.353,1.1-.9v-.016c0-.574-.414-.889-1.111-.889h-1.372v1.8Z" transform="translate(-1594.737 -635.19)" fill="#c5171c"/>
  <path id="Path_987" data-name="Path 987" d="M1681.1,674.288h.873l2.361,5.4h-1l-.544-1.295h-2.536l-.552,1.295h-.965Zm1.349,3.272-.927-2.146-.92,2.146Z" transform="translate(-1618.111 -635.075)" fill="#c5171c"/>
  <path id="Path_988" data-name="Path 988" d="M1715.659,674.44h.874l2.873,3.709V674.44h.927V679.8h-.789l-2.958-3.816V679.8h-.927Z" transform="translate(-1645.758 -635.19)" fill="#c5171c"/>
  <path id="Path_989" data-name="Path 989" d="M1750.746,674.44h2a2.673,2.673,0,0,1,2.851,2.667v.015a2.685,2.685,0,0,1-2.851,2.682h-2Zm.943.858v3.647h1.057a1.748,1.748,0,0,0,1.862-1.808v-.015a1.76,1.76,0,0,0-1.862-1.824Z" transform="translate(-1672.034 -635.19)" fill="#c5171c"/>
  <path id="Path_990" data-name="Path 990" d="M1804.293,678.794l.567-.674a2.483,2.483,0,0,0,1.693.7c.582,0,.95-.276.95-.675v-.015c0-.383-.214-.59-1.211-.82-1.142-.276-1.786-.613-1.786-1.6v-.015a1.64,1.64,0,0,1,1.831-1.555,2.974,2.974,0,0,1,1.947.674l-.506.713a2.436,2.436,0,0,0-1.456-.552c-.552,0-.874.284-.874.636v.015c0,.414.245.6,1.28.843,1.134.276,1.717.682,1.717,1.571v.015c0,1-.789,1.6-1.916,1.6a3.3,3.3,0,0,1-2.237-.858" transform="translate(-1712.135 -634.961)" fill="#c5171c"/>
  <path id="Path_991" data-name="Path 991" d="M1835.955,675.314h-1.7v-.874h4.353v.874h-1.7v4.49h-.951Z" transform="translate(-1734.573 -635.19)" fill="#c5171c"/>
  <path id="Path_992" data-name="Path 992" d="M1864.43,676.864v-.016a2.8,2.8,0,0,1,5.609-.015v.015a2.8,2.8,0,0,1-5.609.016m4.621,0v-.016a1.838,1.838,0,0,0-1.824-1.908,1.812,1.812,0,0,0-1.809,1.893v.015a1.832,1.832,0,0,0,1.824,1.9,1.806,1.806,0,0,0,1.808-1.885" transform="translate(-1757.171 -634.916)" fill="#c5171c"/>
  <path id="Path_993" data-name="Path 993" d="M1902.294,674.44h2.391a2.16,2.16,0,0,1,1.548.536,1.621,1.621,0,0,1,.444,1.157v.016a1.61,1.61,0,0,1-1.272,1.624l1.448,2.031h-1.119l-1.319-1.87h-1.179v1.87h-.943Zm2.322,2.659c.675,0,1.1-.353,1.1-.9v-.016c0-.574-.414-.889-1.111-.889h-1.372v1.8Z" transform="translate(-1785.527 -635.19)" fill="#c5171c"/>
  <path id="Path_994" data-name="Path 994" d="M1935.338,674.44h3.977v.843h-3.035v1.395h2.69v.843h-2.69v1.44h3.073v.843h-4.015Z" transform="translate(-1810.273 -635.19)" fill="#c5171c"/>
  <path id="Path_995" data-name="Path 995" d="M1965.33,678.794l.567-.674a2.483,2.483,0,0,0,1.693.7c.582,0,.95-.276.95-.675v-.015c0-.383-.214-.59-1.211-.82-1.142-.276-1.785-.613-1.785-1.6v-.015a1.64,1.64,0,0,1,1.831-1.555,2.973,2.973,0,0,1,1.946.674l-.505.713a2.437,2.437,0,0,0-1.456-.552c-.552,0-.873.284-.873.636v.015c0,.414.245.6,1.28.843,1.134.276,1.717.682,1.717,1.571v.015c0,1-.79,1.6-1.916,1.6a3.3,3.3,0,0,1-2.237-.858" transform="translate(-1832.734 -634.961)" fill="#c5171c"/>
  <path id="Path_996" data-name="Path 996" d="M1611.15,549.844a8.346,8.346,0,0,1-2.131-6.116V526.415a8.347,8.347,0,0,1,2.131-6.116,9.8,9.8,0,0,1,12.289,0,8.351,8.351,0,0,1,2.13,6.116v17.313a8.351,8.351,0,0,1-2.13,6.116,9.805,9.805,0,0,1-12.289,0m8.969-5.787V526.086q0-3.246-2.824-3.246t-2.824,3.246v17.972q0,3.246,2.824,3.246t2.824-3.246" transform="translate(-1565.898 -518.135)" fill="#c5171c"/>
  <path id="Path_997" data-name="Path 997" d="M1687.811,549.868a8.574,8.574,0,0,1-2.032-6.139v-1.882h5.154V544.1q0,3.2,2.824,3.2a2.729,2.729,0,0,0,2.106-.776,3.64,3.64,0,0,0,.719-2.517,6.708,6.708,0,0,0-.991-3.646,17.772,17.772,0,0,0-3.667-3.787,21.187,21.187,0,0,1-4.707-5.1,9.993,9.993,0,0,1-1.338-5.152,8.315,8.315,0,0,1,2.081-6.045,8.055,8.055,0,0,1,6.045-2.141,7.735,7.735,0,0,1,5.922,2.141,8.647,8.647,0,0,1,2.007,6.14v1.364h-5.154v-1.694a3.649,3.649,0,0,0-.693-2.47,2.584,2.584,0,0,0-2.032-.776q-2.726,0-2.725,3.152a5.986,5.986,0,0,0,1.016,3.34,18.836,18.836,0,0,0,3.692,3.764,19.693,19.693,0,0,1,4.708,5.128,10.918,10.918,0,0,1,1.288,5.411,8.544,8.544,0,0,1-2.105,6.21,8.158,8.158,0,0,1-6.12,2.164q-3.964,0-6-2.141" transform="translate(-1623.382 -518.135)" fill="#c5171c"/>
  <path id="Path_998" data-name="Path 998" d="M1763.607,549.892a8.219,8.219,0,0,1-2.056-5.975V526.228a8.221,8.221,0,0,1,2.056-5.975,9.48,9.48,0,0,1,11.942,0,8.225,8.225,0,0,1,2.056,5.975v3.481h-5.153V525.9q0-3.058-2.726-3.058T1767,525.9v18.4q0,3.011,2.725,3.011t2.726-3.011V539.26h5.153v4.657a8.223,8.223,0,0,1-2.056,5.975,9.479,9.479,0,0,1-11.942,0" transform="translate(-1680.126 -518.136)" fill="#c5171c"/>
  <path id="Path_999" data-name="Path 999" d="M1838.434,520.009h7.383l5.649,32.933h-5.451l-.991-6.54v.094h-6.194l-.991,6.445h-5.055Zm5.946,22.018-2.428-16.278h-.1l-2.379,16.278Z" transform="translate(-1733.473 -519.538)" fill="#c5171c"/>
  <path id="Path_1000" data-name="Path 1000" d="M1917.633,520.009h8.077q4.211,0,6.145,1.858t1.932,5.716v2.023q0,5.128-3.568,6.493v.094a4.2,4.2,0,0,1,2.8,2.305,11.092,11.092,0,0,1,.818,4.658v5.787a21,21,0,0,0,.1,2.282,5.483,5.483,0,0,0,.5,1.717h-5.55a7.233,7.233,0,0,1-.4-1.505,21.452,21.452,0,0,1-.1-2.541v-6.022a4.912,4.912,0,0,0-.768-3.152,3.35,3.35,0,0,0-2.651-.894h-1.883v14.114h-5.451Zm7.433,14.114a3.376,3.376,0,0,0,2.453-.8,3.652,3.652,0,0,0,.817-2.682V528.1a4.021,4.021,0,0,0-.668-2.587,2.594,2.594,0,0,0-2.106-.8h-2.478v9.409Z" transform="translate(-1797.014 -519.538)" fill="#c5171c"/>
  <path id="Path_1001" data-name="Path 1001" d="M1461.464,519.432a17.544,17.544,0,0,0-15.637,31.3l4.23-4.23h0l1.813-1.813h0a4.031,4.031,0,0,1-.889-.61,3.944,3.944,0,0,1-1.129-1.866c-.033-.114-.059-.232-.084-.352a6.173,6.173,0,0,1-.126-1.258v-9.841a6.173,6.173,0,0,1,.126-1.258,4.381,4.381,0,0,1,.473-1.281,3.83,3.83,0,0,1,.74-.938,5.515,5.515,0,0,1,3.863-1.23h0l2.177-2.176h0Z" transform="translate(-1437.3 -518.135)" fill="#09158c"/>
  <path id="Path_1002" data-name="Path 1002" d="M1498.28,529.093l-4.257,4.257-1.776,1.776a3.957,3.957,0,0,1,.469.362,4.043,4.043,0,0,1,1.212,2.217,6.138,6.138,0,0,1,.127,1.259v9.84a6.15,6.15,0,0,1-.125,1.251,4.041,4.041,0,0,1-1.214,2.225,5.1,5.1,0,0,1-3.166,1.2l-2.3,2.3-4.541,4.541a17.543,17.543,0,0,0,15.567-31.228" transform="translate(-1471.309 -526.341)" fill="#c5171c"/>
</svg>
